<svg width="140" height="36" viewBox="0 0 140 36" fill="none" xmlns="http://www.w3.org/2000/svg">
<text x="40.632" y="26" textLength="98.113" lengthAdjust="spacingAndGlyphs" fill="#181C32" font-family="Inter, Helvetica, sans-serif" font-size="20" font-weight="600">Axiom Atlas</text>
<g clip-path="url(#clip0_8670_2703)">

<g filter="url(#filter0_i_8670_2703)">
<path d="M18.2871 20.85L14.074 7.35504C13.8224 6.54894 13.076 6 12.2315 6C11.2036 6 10.356 6.8055 10.3037 7.83205L9.78971 17.919C9.77148 18.2772 9.81469 18.636 9.9175 18.9796L12.2046 26.625C12.4036 27.2903 13.0157 27.746 13.7101 27.746H15.836C16.52 27.746 17.1254 27.3036 17.3332 26.652L18.2786 23.687C18.5726 22.7646 18.5756 21.7741 18.2871 20.85Z" fill="#ECECEC" />
<path d="M18.2871 20.85L14.074 7.35504C13.8224 6.54894 13.076 6 12.2315 6C11.2036 6 10.356 6.8055 10.3037 7.83205L9.78971 17.919C9.77148 18.2772 9.81469 18.636 9.9175 18.9796L12.2046 26.625C12.4036 27.2903 13.0157 27.746 13.7101 27.746H15.836C16.52 27.746 17.1254 27.3036 17.3332 26.652L18.2786 23.687C18.5726 22.7646 18.5756 21.7741 18.2871 20.85Z" fill="url(#paint0_linear_8670_2703)" />
</g>
<path d="M7.98159 6H12.3088C13.3684 6 14.1243 7.02728 13.809 8.03891L7.96293 26.8008C7.75833 27.4575 7.15046 27.9048 6.46265 27.9048H2.13551C1.0759 27.9048 0.320005 26.8775 0.635224 25.8658L6.48131 7.10395C6.68595 6.44729 7.29381 6 7.98159 6Z" fill="#50CD89" />
</g>
<defs>
<filter id="filter0_i_8670_2703" x="5.78564" y="6" width="12.7158" height="24.746" filterUnits="userSpaceOnUse" color-interpolation-filters="sRGB">
<feFlood flood-opacity="0" result="BackgroundImageFix" />
<feBlend mode="normal" in="SourceGraphic" in2="BackgroundImageFix" result="shape" />
<feColorMatrix in="SourceAlpha" type="matrix" values="0 0 0 0 0 0 0 0 0 0 0 0 0 0 0 0 0 0 127 0" result="hardAlpha" />
<feOffset dx="-4" dy="3" />
<feGaussianBlur stdDeviation="2" />
<feComposite in2="hardAlpha" operator="arithmetic" k2="-1" k3="1" />
<feColorMatrix type="matrix" values="0 0 0 0 0.904167 0 0 0 0 0.892865 0 0 0 0 0.892865 0 0 0 0.4 0" />
<feBlend mode="normal" in2="shape" result="effect1_innerShadow_8670_2703" />
</filter>
<linearGradient id="paint0_linear_8670_2703" x1="11.3931" y1="15.625" x2="15.9109" y2="16.8036" gradientUnits="userSpaceOnUse">
<stop stop-opacity="0.25" />
<stop offset="0.911458" stop-color="white" stop-opacity="0" />
</linearGradient>
<clipPath id="clip0_8670_2703">
<rect width="30.6429" height="22" fill="white" transform="translate(0 6)" />
</clipPath>
</defs>
</svg>
